<svg width="134" height="134" viewBox="0 0 134 134" fill="none" xmlns="http://www.w3.org/2000/svg">
<g filter="url(#filter0_d)">
<path fill-rule="evenodd" clip-rule="evenodd" d="M67 125C100.137 125 127 98.1371 127 65C127 31.8629 100.137 5 67 5C33.8629 5 7 31.8629 7 65C7 98.1371 33.8629 125 67 125Z" fill="white"/>
</g>
<path fill-rule="evenodd" clip-rule="evenodd" d="M67 115C94.6142 115 117 92.6142 117 65C117 37.3858 94.6142 15 67 15C39.3858 15 17 37.3858 17 65C17 92.6142 39.3858 115 67 115Z" fill="url(#paint0_linear)"/>
<path d="M59.2153 52.25L55.4653 24.75L72.9653 18.5L106.715 16L71.7153 34.75L59.2153 52.25Z" fill="#272E35"/>
<path d="M61.7153 31L59.2153 52.25L106.715 16L61.7153 31Z" fill="black"/>
<path d="M61.7155 31L85.7295 44.2077C86.29 44.5159 86.9928 44.3512 87.3581 43.8263L106.715 16L61.7155 31Z" fill="#3C444C"/>
<path d="M55.4654 24.75L43.5808 18.3506C42.4373 17.7348 42.8748 16 44.1734 16H106.715L55.4654 24.75Z" fill="#3C444C"/>
<path d="M48.2285 65.4376C47.5749 65.4376 47.0251 64.9297 46.9823 64.2681C46.9377 63.5792 47.4602 62.9847 48.1491 62.9401C48.4816 62.9186 48.8177 62.9053 49.1477 62.9003C49.1541 62.9003 49.1605 62.9001 49.1669 62.9001C49.8485 62.9001 50.4062 63.4475 50.4165 64.1314C50.4268 64.8217 49.8757 65.3897 49.1854 65.4C48.8963 65.4044 48.6019 65.4161 48.3104 65.435C48.283 65.4367 48.2557 65.4376 48.2285 65.4376Z" fill="#FED0EF"/>
<path d="M54.5463 66.1695C54.4185 66.1695 54.2885 66.1498 54.1602 66.1081C53.6446 65.9407 53.1012 65.8006 52.5451 65.6915C51.8677 65.5587 51.4262 64.9018 51.559 64.2243C51.6918 63.547 52.3487 63.1053 53.0262 63.2382C53.6802 63.3665 54.3215 63.532 54.9321 63.7301C55.5888 63.9432 55.9482 64.6482 55.7352 65.3049C55.5635 65.8335 55.0735 66.1695 54.5463 66.1695Z" fill="#FED0EF"/>
<path fill-rule="evenodd" clip-rule="evenodd" d="M50.8452 57.511C51.0032 58.0281 51.5016 58.3993 52.0429 58.3993C52.2513 58.3993 52.4627 58.3471 52.6571 58.2371C53.1531 57.9567 53.6682 57.6904 54.1885 57.4462C54.8134 57.1526 55.082 56.4082 54.7885 55.7832C54.4949 55.1585 53.7506 54.8899 53.1256 55.1832C52.5487 55.4543 51.977 55.7496 51.4263 56.061C50.9273 56.3434 50.6776 56.9623 50.8452 57.511ZM47.6485 61.6143C46.5338 61.6143 45.9846 60.2057 46.7962 59.4496C47.2619 59.0157 47.751 58.5951 48.2499 58.1992C48.7907 57.7699 49.5768 57.8606 50.0062 58.4012C50.4354 58.942 50.3447 59.7282 49.8041 60.1574C49.3566 60.5124 48.918 60.8898 48.5002 61.279C48.2594 61.5034 47.9535 61.6143 47.6485 61.6143ZM43.0882 63.8366C42.5532 64.6502 43.1523 65.7734 44.1315 65.7734C44.5382 65.7734 44.937 65.5752 45.1771 65.21C45.4895 64.735 45.8265 64.2652 46.1787 63.8134C46.6032 63.2691 46.5059 62.4836 45.9615 62.0591C45.4173 61.6347 44.6316 61.7317 44.2071 62.2762C43.8138 62.7806 43.4373 63.3056 43.0882 63.8366ZM59.1863 68.9414C58.8585 68.9414 58.5313 68.8133 58.286 68.5586C57.933 68.1922 57.5288 67.8483 57.0847 67.5362C56.5199 67.1394 56.3836 66.3597 56.7805 65.7948C57.1774 65.23 57.9571 65.0937 58.5219 65.4906C59.0965 65.8942 59.6229 66.3429 60.0863 66.8242C60.5652 67.3214 60.5505 68.1128 60.0533 68.5917C59.811 68.8253 59.4983 68.9414 59.1863 68.9414ZM40.5874 69.1088C40.3752 69.8913 40.9829 70.6863 41.7946 70.6863C42.3451 70.6863 42.8493 70.3199 43.0004 69.7632C43.0873 69.4426 43.2537 68.9131 43.5527 68.2112C43.8234 67.576 43.5277 66.8418 42.8927 66.5712C42.2574 66.3005 41.5232 66.5962 41.2527 67.2312C40.9716 67.8909 40.7416 68.5401 40.5874 69.1088ZM61.3777 73.816C60.7315 73.816 60.1841 73.3185 60.1329 72.6633C60.0915 72.1331 59.996 71.6253 59.849 71.1538C59.6436 70.4947 60.0115 69.7939 60.6705 69.5885C61.3294 69.383 62.0304 69.751 62.2358 70.41C62.4383 71.0597 62.5693 71.7522 62.6254 72.4683C62.6813 73.1858 62.0968 73.816 61.3777 73.816ZM40.3196 75.0596C40.424 75.6687 40.9526 76.0987 41.5502 76.0987C42.3144 76.0987 42.9127 75.3906 42.7838 74.6373C42.6927 74.1067 42.6402 73.5593 42.6276 73.0106C42.6115 72.3204 42.0435 71.7768 41.3488 71.7898C40.6587 71.8059 40.1121 72.3784 40.128 73.0685C40.1437 73.739 40.2082 74.4088 40.3196 75.0596ZM60.3201 79.106C59.408 79.106 58.7986 78.1182 59.1994 77.3039C59.4352 76.8246 59.6316 76.3214 59.783 75.8088C59.9786 75.1467 60.6741 74.7686 61.336 74.9641C61.998 75.1597 62.3761 75.855 62.1807 76.5171C61.9891 77.1652 61.7408 77.8013 61.4426 78.4075C61.2252 78.8494 60.7815 79.106 60.3201 79.106ZM42.704 80.5734C42.9502 80.8918 43.3199 81.0587 43.6937 81.0587C44.716 81.0587 45.303 79.8476 44.6816 79.044C44.3587 78.6265 44.0671 78.1729 43.8148 77.6962C43.4918 77.086 42.7352 76.8529 42.1252 77.176C41.5149 77.499 41.2821 78.2554 41.6051 78.8656C41.9241 79.4684 42.2938 80.0429 42.704 80.5734ZM56.7576 83.1493C56.1846 83.1493 55.6712 82.7445 55.5395 82.1863C55.4193 81.6771 55.639 81.1326 56.0784 80.849C56.5202 80.5637 56.939 80.2343 57.3227 79.8698C57.8235 79.3945 58.6146 79.4149 59.0899 79.9154C59.5652 80.416 59.5448 81.2073 59.0443 81.6826C58.5482 82.1537 58.0065 82.5799 57.4345 82.9491C57.2248 83.0846 56.9898 83.1493 56.7576 83.1493ZM47.6141 84.1703C47.7522 84.2194 47.8932 84.2425 48.0319 84.2425C48.6502 84.2425 49.1882 83.7713 49.271 83.1588C49.3494 82.58 48.9999 82.0091 48.4497 81.8141C47.9593 81.6403 47.4822 81.4153 47.0318 81.1456C46.4393 80.7906 45.6718 80.9838 45.3172 81.576C44.9625 82.1683 45.1552 82.9358 45.7475 83.2905C46.3399 83.6452 46.9679 83.9411 47.6141 84.1703ZM50.3609 83.568C50.394 84.2364 50.9463 84.756 51.6082 84.756C51.6292 84.756 51.6503 84.7555 51.6712 84.7544C51.6971 84.7531 51.7231 84.7518 51.7486 84.7503L51.7917 84.7477C52.4331 84.7086 53.0659 84.6229 53.6724 84.4927C54.3474 84.3478 54.7773 83.6833 54.6326 83.0083C54.4878 82.3335 53.824 81.9035 53.1482 82.0482C52.6637 82.1521 52.1559 82.2208 51.6374 82.2525L51.5473 82.2575C50.8579 82.2918 50.3267 82.8785 50.3609 83.568Z" fill="#FED0EF"/>
<path d="M57.0633 56.2579C56.44 56.2579 55.8999 55.7786 55.823 55.1607C55.7489 54.5655 56.1261 53.9866 56.6994 53.8119C57.0083 53.7177 57.3258 53.6271 57.6428 53.5424C58.3099 53.3643 58.9949 53.7605 59.173 54.4275C59.3511 55.0946 58.9549 55.7796 58.2878 55.9577C57.9988 56.0349 57.7095 56.1175 57.4283 56.2033C57.3069 56.2404 57.1841 56.2579 57.0633 56.2579Z" fill="#FED0EF"/>
<path d="M31.7165 96.0002C31.2637 96.0002 30.8267 95.7534 30.6047 95.3232C30.454 95.0313 30.3076 94.7331 30.1693 94.4365C29.8776 93.8107 30.1486 93.0671 30.7742 92.7754C31.4001 92.4837 32.1436 92.7548 32.4353 93.3802C32.5593 93.6465 32.6909 93.9145 32.8262 94.1768C33.247 94.9923 32.6387 96.0002 31.7165 96.0002Z" fill="#FED0EF"/>
<path d="M30.074 91.8738C29.5293 91.8738 29.0284 91.5151 28.8723 90.9651C28.7027 90.3685 28.5571 89.7601 28.4393 89.1566C28.307 88.4791 28.749 87.8226 29.4265 87.6902C30.1045 87.5581 30.7607 87.9999 30.8929 88.6774C30.9973 89.2124 31.1267 89.7521 31.277 90.2818C31.5002 91.0674 30.892 91.8738 30.074 91.8738Z" fill="#FED0EF"/>
<path fill-rule="evenodd" clip-rule="evenodd" d="M33.6479 70.0998C32.9569 70.8901 33.533 72.1724 34.5885 72.1724C34.9366 72.1724 35.2829 72.0277 35.5301 71.7452C35.7952 71.4421 36.0708 71.1471 36.3493 70.8685C36.4538 70.7638 36.5593 70.6609 36.6655 70.5595C37.1651 70.0829 37.1835 69.2916 36.7069 68.7921C36.2305 68.2926 35.4391 68.2741 34.9396 68.7507C34.8193 68.8655 34.6999 68.9821 34.5813 69.1007C34.2635 69.4187 33.9494 69.7548 33.6479 70.0998ZM31.6534 76.5288C30.7338 76.5288 30.1251 75.5262 30.5407 74.7107C30.8209 74.1613 31.1263 73.6171 31.4484 73.0935C31.8099 72.5054 32.5798 72.3218 33.1679 72.6835C33.756 73.0451 33.9395 73.8151 33.5779 74.403C33.2905 74.8704 33.018 75.356 32.7679 75.8463C32.5471 76.2796 32.1082 76.5288 31.6534 76.5288ZM28.6264 79.923C28.4446 80.6959 29.0496 81.4594 29.8443 81.4594C30.4113 81.4594 30.9247 81.0709 31.0602 80.4951C31.1854 79.9625 31.3346 79.4269 31.5038 78.9028C31.7158 78.2458 31.3552 77.5412 30.6982 77.3292C30.0418 77.1175 29.3368 77.4778 29.1246 78.1348C28.9347 78.7231 28.7671 79.3247 28.6264 79.923ZM28.0401 85.4576C28.0548 86.1385 28.6115 86.6806 29.2893 86.6806C29.2985 86.6806 29.3076 86.6806 29.3169 86.6803C30.0071 86.6654 30.5544 86.0937 30.5396 85.4035C30.5366 85.2642 30.5351 85.1251 30.5351 84.9864C30.5351 84.5782 30.5482 84.1643 30.5743 83.7562C30.6182 83.0671 30.0954 82.4731 29.4065 82.429C28.7158 82.387 28.1233 82.9079 28.0793 83.5968C28.0499 84.0579 28.0349 84.5254 28.0349 84.9864C28.0349 85.1431 28.0366 85.3001 28.0401 85.4576Z" fill="#FED0EF"/>
<path d="M38.5447 68.7154C38.1399 68.7154 37.7427 68.519 37.5021 68.1563C37.1203 67.581 37.2772 66.8054 37.8525 66.4237C38.1283 66.2407 38.4117 66.0621 38.6953 65.8927C39.2878 65.5385 40.0553 65.7321 40.4096 66.3248C40.7636 66.9174 40.5702 67.6849 39.9775 68.039C39.7277 68.1882 39.4778 68.3457 39.2349 68.507C39.0222 68.6479 38.7821 68.7154 38.5447 68.7154Z" fill="#FED0EF"/>
<defs>
<filter id="filter0_d" x="0" y="0" width="134" height="134" filterUnits="userSpaceOnUse" color-interpolation-filters="sRGB">
<feFlood flood-opacity="0" result="BackgroundImageFix"/>
<feColorMatrix in="SourceAlpha" type="matrix" values="0 0 0 0 0 0 0 0 0 0 0 0 0 0 0 0 0 0 127 0"/>
<feOffset dy="2"/>
<feGaussianBlur stdDeviation="3.5"/>
<feColorMatrix type="matrix" values="0 0 0 0 0.313726 0 0 0 0 0.129412 0 0 0 0 0.682353 0 0 0 0.15 0"/>
<feBlend mode="normal" in2="BackgroundImageFix" result="effect1_dropShadow"/>
<feBlend mode="normal" in="SourceGraphic" in2="effect1_dropShadow" result="shape"/>
</filter>
<linearGradient id="paint0_linear" x1="115.97" y1="115" x2="115.97" y2="17.0595" gradientUnits="userSpaceOnUse">
<stop stop-color="#8CF5D4"/>
<stop offset="1" stop-color="#058C2E"/>
</linearGradient>
</defs>
</svg>
