<svg width="134" height="135" viewBox="0 0 134 135" fill="none" xmlns="http://www.w3.org/2000/svg">
<g filter="url(#filter0_d)">
<path fill-rule="evenodd" clip-rule="evenodd" d="M67 125.4C100.137 125.4 127 98.5371 127 65.4C127 32.2629 100.137 5.40002 67 5.40002C33.8629 5.40002 7 32.2629 7 65.4C7 98.5371 33.8629 125.4 67 125.4Z" fill="white"/>
</g>
<path fill-rule="evenodd" clip-rule="evenodd" d="M67 115.4C94.6142 115.4 117 93.0143 117 65.4C117 37.7858 94.6142 15.4 67 15.4C39.3858 15.4 17 37.7858 17 65.4C17 93.0143 39.3858 115.4 67 115.4Z" fill="url(#paint0_linear)"/>
<path d="M101.767 61.2056C100.837 59.4312 98.8383 58.8035 97.2352 59.7805L81.1596 67.5611C80.8764 67.6972 80.5717 67.7679 80.2647 67.7665H60.3372C59.0854 67.7665 58.0714 66.6174 58.0714 65.1987C58.0714 63.7799 59.0854 62.6308 60.3372 62.6308H69.4003C73.1547 62.6308 76.1976 59.1822 76.1976 54.9271H57.3464C54.2218 54.9297 51.2674 56.5411 49.3143 59.3054L42.2111 69.0504L50.2093 85.6645L80.9898 77.2804C82.3198 76.9324 83.6068 76.3984 84.8189 75.6883L100.679 66.4824C102.257 65.3591 102.742 63.0057 101.767 61.2056Z" fill="white"/>
<path d="M47.6603 80.3749L50.2092 85.6647L80.9898 77.2806C82.3198 76.9326 83.6068 76.3986 84.8189 75.6885L93.3949 70.694C79.1431 75.6371 60.2239 78.7186 47.6603 80.3749Z" fill="#FEDBD0"/>
<path fill-rule="evenodd" clip-rule="evenodd" d="M43.998 68.611C42.8003 66.5313 40.0535 65.9672 38.133 67.4064L32.8121 71.394C31.2036 72.5993 30.7395 74.8111 31.7277 76.5614L40.557 92.1999C41.7354 94.2872 44.4725 94.8764 46.4055 93.459L51.886 89.4402C53.5303 88.2345 54.0045 85.985 52.9869 84.2181L43.998 68.611Z" fill="#3C444C"/>
<path d="M46.7426 87.0294C47.9939 87.0294 49.0084 85.8798 49.0084 84.4616C49.0084 83.0434 47.9939 81.8937 46.7426 81.8937C45.4912 81.8937 44.4768 83.0434 44.4768 84.4616C44.4768 85.8798 45.4912 87.0294 46.7426 87.0294Z" fill="white"/>
<path d="M27.9724 29.932C28.0404 27.2347 28.8224 25.172 30.3184 23.744C31.837 22.316 33.979 21.602 36.7444 21.602C38.5351 21.602 40.0651 21.908 41.3344 22.52C42.6037 23.132 43.5557 23.9593 44.1904 25.002C44.8477 26.0447 45.1764 27.2233 45.1764 28.538C45.1764 30.1247 44.8024 31.3713 44.0544 32.278C43.3064 33.162 42.4677 33.7627 41.5384 34.08V34.216C44.2584 35.236 45.6184 37.1287 45.6184 39.894C45.6184 41.3447 45.2784 42.6253 44.5984 43.736C43.9184 44.8467 42.9437 45.708 41.6744 46.32C40.4277 46.932 38.943 47.238 37.2204 47.238C34.2737 47.238 31.9617 46.5353 30.2844 45.13C28.607 43.7247 27.7457 41.526 27.7004 38.534H35.0444C34.9991 39.35 35.1124 39.9733 35.3844 40.404C35.6791 40.812 36.1777 41.016 36.8804 41.016C37.2884 41.016 37.6284 40.8687 37.9004 40.574C38.1724 40.2567 38.3084 39.8487 38.3084 39.35C38.3084 38.7153 38.093 38.2393 37.6624 37.922C37.2544 37.582 36.5517 37.412 35.5544 37.412H34.2964V31.326H35.5204C37.0617 31.4167 37.8324 30.8047 37.8324 29.49C37.8324 28.9233 37.7077 28.504 37.4584 28.232C37.2317 27.96 36.937 27.824 36.5744 27.824C35.7357 27.824 35.3164 28.5267 35.3164 29.932H27.9724ZM48.4484 34.216C48.4484 30.2947 49.2757 27.212 50.9304 24.968C52.6077 22.724 55.1804 21.602 58.6484 21.602C62.0937 21.602 64.655 22.7353 66.3324 25.002C68.0097 27.246 68.8484 30.3173 68.8484 34.216C68.8484 38.1373 68.0097 41.2313 66.3324 43.498C64.655 45.742 62.0937 46.864 58.6484 46.864C55.1804 46.864 52.6077 45.742 50.9304 43.498C49.2757 41.2313 48.4484 38.1373 48.4484 34.216ZM61.4024 34.216C61.4024 32.4027 61.221 31.0427 60.8584 30.136C60.4957 29.2067 59.759 28.742 58.6484 28.742C57.515 28.742 56.767 29.2067 56.4044 30.136C56.0417 31.0427 55.8604 32.4027 55.8604 34.216C55.8604 36.052 56.0417 37.4347 56.4044 38.364C56.767 39.2707 57.515 39.724 58.6484 39.724C59.759 39.724 60.4957 39.2707 60.8584 38.364C61.221 37.4347 61.4024 36.052 61.4024 34.216ZM76.3634 28.64C76.3634 26.6453 76.9301 25.1267 78.0634 24.084C79.1967 23.0187 80.6814 22.486 82.5174 22.486C84.3307 22.486 85.7927 23.0187 86.9034 24.084C88.0367 25.1267 88.6034 26.6453 88.6034 28.64C88.6034 30.6347 88.0367 32.1533 86.9034 33.196C85.7927 34.2387 84.3307 34.76 82.5174 34.76C80.6814 34.76 79.1967 34.2387 78.0634 33.196C76.9301 32.1533 76.3634 30.6347 76.3634 28.64ZM101.557 22.826L88.8754 47H81.6674L94.3494 22.826H101.557ZM82.4494 26.872C81.6787 26.872 81.2934 27.4613 81.2934 28.64C81.2934 29.796 81.6787 30.374 82.4494 30.374C82.8574 30.374 83.1634 30.2267 83.3674 29.932C83.5941 29.6373 83.7074 29.2067 83.7074 28.64C83.7074 28.0507 83.5941 27.6087 83.3674 27.314C83.1634 27.0193 82.8574 26.872 82.4494 26.872ZM94.6214 41.186C94.6214 39.1913 95.1881 37.6727 96.3214 36.63C97.4547 35.5647 98.9281 35.032 100.741 35.032C102.577 35.032 104.051 35.5647 105.161 36.63C106.272 37.6727 106.827 39.1913 106.827 41.186C106.827 43.1807 106.272 44.7107 105.161 45.776C104.051 46.8187 102.577 47.34 100.741 47.34C98.9281 47.34 97.4547 46.8187 96.3214 45.776C95.1881 44.7107 94.6214 43.1807 94.6214 41.186ZM100.707 39.418C99.9141 39.418 99.5174 40.0073 99.5174 41.186C99.5174 42.3647 99.9141 42.954 100.707 42.954C101.093 42.954 101.387 42.8067 101.591 42.512C101.818 42.2173 101.931 41.7753 101.931 41.186C101.931 40.6193 101.818 40.1887 101.591 39.894C101.387 39.5767 101.093 39.418 100.707 39.418Z" fill="#3C444C"/>
<defs>
<filter id="filter0_d" x="0" y="0.400024" width="134" height="134" filterUnits="userSpaceOnUse" color-interpolation-filters="sRGB">
<feFlood flood-opacity="0" result="BackgroundImageFix"/>
<feColorMatrix in="SourceAlpha" type="matrix" values="0 0 0 0 0 0 0 0 0 0 0 0 0 0 0 0 0 0 127 0"/>
<feOffset dy="2"/>
<feGaussianBlur stdDeviation="3.5"/>
<feColorMatrix type="matrix" values="0 0 0 0 0.313726 0 0 0 0 0.129412 0 0 0 0 0.682353 0 0 0 0.15 0"/>
<feBlend mode="normal" in2="BackgroundImageFix" result="effect1_dropShadow"/>
<feBlend mode="normal" in="SourceGraphic" in2="effect1_dropShadow" result="shape"/>
</filter>
<linearGradient id="paint0_linear" x1="115.97" y1="115.4" x2="115.97" y2="17.4595" gradientUnits="userSpaceOnUse">
<stop stop-color="#058C2E"/>
<stop offset="1" stop-color="#8CF5D4"/>
</linearGradient>
</defs>
</svg>
