<svg width="134" height="134" viewBox="0 0 134 134" fill="none" xmlns="http://www.w3.org/2000/svg">
<g filter="url(#filter0_d)">
<path fill-rule="evenodd" clip-rule="evenodd" d="M67 125C100.137 125 127 98.1371 127 65C127 31.8629 100.137 5 67 5C33.8629 5 7 31.8629 7 65C7 98.1371 33.8629 125 67 125Z" fill="white"/>
</g>
<path fill-rule="evenodd" clip-rule="evenodd" d="M67 115C94.6142 115 117 92.6142 117 65C117 37.3858 94.6142 15 67 15C39.3858 15 17 37.3858 17 65C17 92.6142 39.3858 115 67 115Z" fill="url(#paint0_linear)"/>
<path d="M105.75 19H28.25C27.5597 19 27 19.5597 27 20.25V90.25C27 90.9403 27.5597 91.5 28.25 91.5H105.75C106.44 91.5 107 90.9403 107 90.25V20.25C107 19.5597 106.44 19 105.75 19Z" fill="white"/>
<path d="M105.75 19H28.25C27.5597 19 27 19.5597 27 20.25V30.25H107V20.25C107 19.5597 106.44 19 105.75 19Z" fill="#3C444C"/>
<path d="M70.75 74H63.25C60.493 74 58.25 76.243 58.25 79C58.25 81.757 60.493 84 63.25 84H70.75C73.507 84 75.75 81.757 75.75 79C75.75 76.243 73.507 74 70.75 74Z" fill="#37474F"/>
<path d="M87 44H47C46.3097 44 45.75 44.5597 45.75 45.25V70.25C45.75 70.9403 46.3097 71.5 47 71.5H87C87.6903 71.5 88.25 70.9403 88.25 70.25V45.25C88.25 44.5597 87.6903 44 87 44Z" fill="#8CF5D4"/>
<path d="M95.75 26.5H95.5938C94.9034 26.5 94.3438 25.9403 94.3438 25.25C94.3438 24.5597 94.9034 24 95.5938 24H95.75C96.4403 24 97 24.5597 97 25.25C97 25.9403 96.4403 26.5 95.75 26.5Z" fill="white"/>
<path d="M100.75 26.5H100.594C99.9034 26.5 99.3438 25.9403 99.3438 25.25C99.3438 24.5597 99.9034 24 100.594 24H100.75C101.44 24 102 24.5597 102 25.25C102 25.9403 101.44 26.5 100.75 26.5Z" fill="white"/>
<path d="M90.5938 26.5H90.4375C89.7472 26.5 89.1875 25.9403 89.1875 25.25C89.1875 24.5597 89.7472 24 90.4375 24H90.5938C91.2841 24 91.8438 24.5597 91.8438 25.25C91.8438 25.9403 91.2841 26.5 90.5938 26.5Z" fill="white"/>
<path d="M100.384 77.0806L92.4289 69.1256L96.8483 64.7061C97.5154 64.0391 97.201 62.8639 96.2933 62.6162L76.8479 57.313C75.9319 57.0633 75.0632 57.9319 75.313 58.8478L80.6163 78.2933C80.8639 79.2008 82.0391 79.5156 82.7061 78.8483L87.1257 74.4289L95.0807 82.3839C95.5622 82.8655 96.3668 82.8655 96.8483 82.3839L100.384 78.8484C100.872 78.3602 100.872 77.5687 100.384 77.0806Z" fill="#37474F"/>
<path d="M72 41.5H47C46.3097 41.5 45.75 40.9403 45.75 40.25C45.75 39.5597 46.3097 39 47 39H72C72.6903 39 73.25 39.5597 73.25 40.25C73.25 40.9403 72.6903 41.5 72 41.5Z" fill="#8CF5D4"/>
<path d="M88.25 41.5H77C76.3097 41.5 75.75 40.9403 75.75 40.25C75.75 39.5597 76.3097 39 77 39H88.25C88.9403 39 89.5 39.5597 89.5 40.25C89.5 40.9403 88.9403 41.5 88.25 41.5Z" fill="#8CF5D4"/>
<defs>
<filter id="filter0_d" x="0" y="0" width="134" height="134" filterUnits="userSpaceOnUse" color-interpolation-filters="sRGB">
<feFlood flood-opacity="0" result="BackgroundImageFix"/>
<feColorMatrix in="SourceAlpha" type="matrix" values="0 0 0 0 0 0 0 0 0 0 0 0 0 0 0 0 0 0 127 0"/>
<feOffset dy="2"/>
<feGaussianBlur stdDeviation="3.5"/>
<feColorMatrix type="matrix" values="0 0 0 0 0.313726 0 0 0 0 0.129412 0 0 0 0 0.682353 0 0 0 0.15 0"/>
<feBlend mode="normal" in2="BackgroundImageFix" result="effect1_dropShadow"/>
<feBlend mode="normal" in="SourceGraphic" in2="effect1_dropShadow" result="shape"/>
</filter>
<linearGradient id="paint0_linear" x1="115.97" y1="115" x2="115.97" y2="17.0595" gradientUnits="userSpaceOnUse">
<stop stop-color="#058C2E"/>
<stop offset="1" stop-color="#8CF5D4"/>
</linearGradient>
</defs>
</svg>
