<svg width="134" height="135" viewBox="0 0 134 135" fill="none" xmlns="http://www.w3.org/2000/svg">
<g filter="url(#filter0_d)">
<path fill-rule="evenodd" clip-rule="evenodd" d="M67 125.4C100.137 125.4 127 98.5371 127 65.4C127 32.2629 100.137 5.40002 67 5.40002C33.8629 5.40002 7 32.2629 7 65.4C7 98.5371 33.8629 125.4 67 125.4Z" fill="white"/>
</g>
<path fill-rule="evenodd" clip-rule="evenodd" d="M67 115.4C94.6142 115.4 117 93.0143 117 65.4C117 37.7858 94.6142 15.4 67 15.4C39.3858 15.4 17 37.7858 17 65.4C17 93.0143 39.3858 115.4 67 115.4Z" fill="url(#paint0_linear)"/>
<path d="M93.1541 64.7751C93.1553 64.2127 93.0132 63.6619 92.7431 63.1829L90.1243 58.5737C89.7979 57.8649 89.6288 57.0818 89.6311 56.2883V42.0879C89.6311 32.8692 82.7965 25.3967 74.3647 25.3967H67.3187C58.887 25.3967 52.0524 32.8692 52.0524 42.0879V56.2883C52.0548 57.0818 51.8857 57.865 51.5591 58.5737L48.9403 63.1829C48.6702 63.6619 48.5281 64.2127 48.5293 64.7751C48.5352 66.425 49.7565 67.7602 51.2655 67.7666H90.4177C91.9269 67.7602 93.1483 66.4248 93.1541 64.7751Z" fill="#3C444C"/>
<path d="M74.3648 25.3967L80.2364 16.4092H61.4471L67.3188 25.3967V27.9646H74.3648V25.3967Z" fill="#3C444C"/>
<path d="M92.743 63.1829L90.1242 58.5736C89.7978 57.8648 89.6287 57.0817 89.631 56.2882V42.0878C89.6392 38.3695 88.5107 34.754 86.4251 31.8163C83.2897 50.7031 72.251 61.5909 61.8816 67.7665H90.4179C91.9351 67.7729 93.1706 66.4338 93.1764 64.7737C93.1788 64.2113 93.0367 63.6605 92.7666 63.1829H92.743Z" fill="#272E35"/>
<path fill-rule="evenodd" clip-rule="evenodd" d="M76.7133 44.6558V43.8341C76.7075 41.4549 74.9436 39.5266 72.7675 39.52H72.016V36.9521H69.6673V39.52H68.9158C66.7362 39.5123 64.9641 41.4369 64.9571 43.8199C64.9512 45.6289 65.9787 47.2493 67.5301 47.8784L69.6673 48.7514V53.6432H68.9158C68.0338 53.6432 67.3186 52.8612 67.3186 51.897V51.0753H64.97V51.897C64.9758 54.2762 66.7397 56.2045 68.9158 56.2111H72.7677C74.9472 56.2188 76.7193 54.2942 76.7264 51.9112C76.7322 50.1022 75.7047 48.4818 74.1534 47.8528L72.0161 46.9797V42.0879H72.7677C73.6496 42.0879 74.3648 42.8699 74.3648 43.8341V44.6558H76.7133ZM73.3313 50.2538C73.9514 50.5169 74.3612 51.1693 74.3647 51.8972C74.3647 52.8615 73.6495 53.6435 72.7675 53.6435H72.016V49.7146L73.3313 50.2538ZM68.3522 45.4775L69.6675 46.0168V42.0878H68.916C68.0341 42.0878 67.3188 42.8697 67.3188 43.834C67.3223 44.562 67.7321 45.2143 68.3522 45.4775Z" fill="white"/>
<path d="M104.392 61.2056C103.428 59.4312 101.357 58.8035 99.695 59.7805L83.0312 67.5611C82.7377 67.6972 82.4218 67.7679 82.1035 67.7665H61.447C60.1494 67.7665 59.0983 66.6174 59.0983 65.1987C59.0983 63.7799 60.1494 62.6308 61.447 62.6308H70.8417C74.7335 62.6308 77.8877 59.1822 77.8877 54.9271H58.3468C55.1079 54.9297 52.0454 56.5411 50.0208 59.3054L42.6577 69.0504L50.9485 85.6645L82.8552 77.2804C84.2338 76.9324 85.5679 76.3984 86.8244 75.6883L103.265 66.4824C104.901 65.3591 105.403 63.0057 104.392 61.2056Z" fill="white"/>
<path d="M48.3064 80.3749L50.9486 85.6647L82.8553 77.2806C84.2339 76.9326 85.568 76.3986 86.8245 75.6885L95.7142 70.694C80.941 75.6371 61.3297 78.7186 48.3064 80.3749Z" fill="#FED0EF"/>
<path fill-rule="evenodd" clip-rule="evenodd" d="M44.4136 68.4493C43.2103 66.4337 40.538 65.8828 38.6356 67.2582L32.9431 71.3737C31.2737 72.5805 30.7939 74.8578 31.8343 76.6357L41.0369 92.36C42.2214 94.3839 44.8848 94.9594 46.7992 93.6051L52.6591 89.4598C54.3646 88.2533 54.8544 85.9375 53.7835 84.1438L44.4136 68.4493Z" fill="#3C444C"/>
<path d="M47.3551 87.0294C48.6523 87.0294 49.7038 85.8798 49.7038 84.4616C49.7038 83.0434 48.6523 81.8937 47.3551 81.8937C46.058 81.8937 45.0065 83.0434 45.0065 84.4616C45.0065 85.8798 46.058 87.0294 47.3551 87.0294Z" fill="white"/>
<defs>
<filter id="filter0_d" x="0" y="0.400024" width="134" height="134" filterUnits="userSpaceOnUse" color-interpolation-filters="sRGB">
<feFlood flood-opacity="0" result="BackgroundImageFix"/>
<feColorMatrix in="SourceAlpha" type="matrix" values="0 0 0 0 0 0 0 0 0 0 0 0 0 0 0 0 0 0 127 0"/>
<feOffset dy="2"/>
<feGaussianBlur stdDeviation="3.5"/>
<feColorMatrix type="matrix" values="0 0 0 0 0.313726 0 0 0 0 0.129412 0 0 0 0 0.682353 0 0 0 0.15 0"/>
<feBlend mode="normal" in2="BackgroundImageFix" result="effect1_dropShadow"/>
<feBlend mode="normal" in="SourceGraphic" in2="effect1_dropShadow" result="shape"/>
</filter>
<linearGradient id="paint0_linear" x1="115.97" y1="115.4" x2="115.97" y2="17.4595" gradientUnits="userSpaceOnUse">
<stop stop-color="#058C2E"/>
<stop offset="1" stop-color="#8CF5D4"/>
</linearGradient>
</defs>
</svg>
