<svg width="134" height="134" viewBox="0 0 134 134" fill="none" xmlns="http://www.w3.org/2000/svg">
<g filter="url(#filter0_d)">
<path fill-rule="evenodd" clip-rule="evenodd" d="M67 125C100.137 125 127 98.1371 127 65C127 31.8629 100.137 5 67 5C33.8629 5 7 31.8629 7 65C7 98.1371 33.8629 125 67 125Z" fill="white"/>
</g>
<path fill-rule="evenodd" clip-rule="evenodd" d="M67 115C94.6142 115 117 92.6142 117 65C117 37.3858 94.6142 15 67 15C39.3858 15 17 37.3858 17 65C17 92.6142 39.3858 115 67 115Z" fill="url(#paint0_linear)"/>
<path d="M100.75 14.0046H33.25C29.8038 14.0046 27 16.8084 27 20.2546V72.7546C27 76.2009 29.8038 79.0046 33.25 79.0046H40.75V92.7546C40.75 93.8426 42.1108 94.4112 42.8839 93.6385L57.5177 79.0046H100.75C104.196 79.0046 107 76.2009 107 72.7546V20.2546C107 16.8084 104.196 14.0046 100.75 14.0046Z" fill="#3C444C"/>
<path d="M53.3514 70.052H44.5C43.1192 70.052 42 68.9328 42 67.552V46.2345C42 44.8537 43.1192 43.7345 44.5 43.7345H53.3514C54.7322 43.7345 55.8514 44.8537 55.8514 46.2345V67.552C55.8514 68.9328 54.732 70.052 53.3514 70.052Z" fill="#8CF5D4"/>
<path d="M48.9251 65.8963C50.0725 65.8963 51.0027 64.9661 51.0027 63.8186C51.0027 62.6712 50.0725 61.741 48.9251 61.741C47.7776 61.741 46.8474 62.6712 46.8474 63.8186C46.8474 64.9661 47.7776 65.8963 48.9251 65.8963Z" fill="white"/>
<path d="M93.25 43.3796V42.704C93.25 41.006 91.8736 39.6296 90.1756 39.6296H80.5156C77.6247 39.6296 75.2812 37.2862 75.2812 34.3952V31.2681C75.2812 24.9604 69.7003 23.4401 67.0078 23.0737C66.2589 22.9718 65.5938 23.5568 65.5938 24.3126V30.9612C65.5938 35.3093 63.8587 39.4777 60.7737 42.542L55.9062 47.3762V65.2173L61.3919 67.2859H86.9614C88.8387 67.2859 90.4312 65.8146 90.4786 63.9379C90.5278 61.9837 88.9591 60.4109 87.0169 60.4109H88.7398C90.4541 60.4109 91.8438 59.0212 91.8438 57.307V56.5552C91.8438 54.8293 90.4658 53.3796 88.7398 53.3796H90.125C91.8509 53.3796 93.25 51.9806 93.25 50.2546V49.6296C93.25 47.9037 91.8509 46.5046 90.125 46.5046C91.8509 46.5046 93.25 45.1056 93.25 43.3796Z" fill="white"/>
<defs>
<filter id="filter0_d" x="0" y="0" width="134" height="134" filterUnits="userSpaceOnUse" color-interpolation-filters="sRGB">
<feFlood flood-opacity="0" result="BackgroundImageFix"/>
<feColorMatrix in="SourceAlpha" type="matrix" values="0 0 0 0 0 0 0 0 0 0 0 0 0 0 0 0 0 0 127 0"/>
<feOffset dy="2"/>
<feGaussianBlur stdDeviation="3.5"/>
<feColorMatrix type="matrix" values="0 0 0 0 0.313726 0 0 0 0 0.129412 0 0 0 0 0.682353 0 0 0 0.15 0"/>
<feBlend mode="normal" in2="BackgroundImageFix" result="effect1_dropShadow"/>
<feBlend mode="normal" in="SourceGraphic" in2="effect1_dropShadow" result="shape"/>
</filter>
<linearGradient id="paint0_linear" x1="115.97" y1="115" x2="115.97" y2="17.0595" gradientUnits="userSpaceOnUse">
<stop stop-color="#058C2E"/>
<stop offset="1" stop-color="#8CF5D4"/>
</linearGradient>
</defs>
</svg>
