<svg width="11" height="19" viewBox="0 0 11 19" fill="none" xmlns="http://www.w3.org/2000/svg">
<g id="facebook-letter-logo">
<path id="Facebook" d="M2.52634 3.5849C2.52634 4.03981 2.52634 6.07025 2.52634 6.07025H0.437622V9.10936H2.52634V18.1405H6.817V9.10961H9.69623C9.69623 9.10961 9.96588 7.65238 10.0966 6.05905C9.72184 6.05905 6.83322 6.05905 6.83322 6.05905C6.83322 6.05905 6.83322 4.29099 6.83322 3.98109C6.83322 3.67051 7.30103 3.25275 7.76341 3.25275C8.22491 3.25275 9.19895 3.25275 10.1011 3.25275C10.1011 2.83897 10.1011 1.40927 10.1011 0.0888672C8.89676 0.0888672 7.52659 0.0888672 6.92262 0.0888672C2.42027 0.0886573 2.52634 3.13078 2.52634 3.5849Z" fill="white"/>
</g>
</svg>
