<svg width="19" height="18" viewBox="0 0 19 18" fill="none" xmlns="http://www.w3.org/2000/svg">
<g id="instagram-logo">
<g id="1077093">
<path id="Shape" fill-rule="evenodd" clip-rule="evenodd" d="M13.4408 0H5.46348C2.86718 0 0.755005 2.11218 0.755005 4.70848V12.6859C0.755005 15.2821 2.86718 17.3943 5.46348 17.3943H13.441C16.0371 17.3943 18.1493 15.2821 18.1493 12.6859V4.70848C18.1493 2.11218 16.0371 0 13.4408 0ZM9.45213 13.4532C6.82956 13.4532 4.69602 11.3197 4.69602 8.69708C4.69602 6.07451 6.82956 3.94096 9.45213 3.94096C12.0747 3.94096 14.2083 6.07451 14.2083 8.69708C14.2083 11.3197 12.0747 13.4532 9.45213 13.4532ZM12.9167 3.65725C12.9167 4.43226 13.547 5.06262 14.322 5.06262C15.0971 5.06262 15.7275 4.43226 15.7275 3.65725C15.7275 2.88223 15.0971 2.25174 14.322 2.25174C13.547 2.25174 12.9167 2.88223 12.9167 3.65725Z" fill="#3C444C"/>
<path id="Path" d="M9.45233 4.96082C7.39218 4.96082 5.71594 6.63692 5.71594 8.69721C5.71594 10.7574 7.39218 12.4336 9.45233 12.4336C11.5126 12.4336 13.1887 10.7574 13.1887 8.69721C13.1887 6.63692 11.5126 4.96082 9.45233 4.96082Z" fill="#3C444C"/>
<path id="Path_2" d="M14.3221 3.27161C14.1095 3.27161 13.9364 3.44466 13.9364 3.65726C13.9364 3.86985 14.1095 4.0429 14.3221 4.0429C14.5348 4.0429 14.7078 3.86999 14.7078 3.65726C14.7078 3.44452 14.5348 3.27161 14.3221 3.27161Z" fill="#3C444C"/>
</g>
</g>
</svg>
