<svg width="25" height="19" viewBox="0 0 25 19" fill="none" xmlns="http://www.w3.org/2000/svg">
<g id="twitter-logo">
<path id="Twitter__x28_alt_x29_" d="M22.1844 8.11433C23.58 7.99292 24.5267 7.32387 24.891 6.41607C24.3876 6.74218 22.8248 7.09772 21.9618 6.75912C21.9195 6.54528 21.8722 6.34217 21.8258 6.15879C21.1682 3.61236 18.9166 1.56087 16.5573 1.8087C16.7482 1.72743 16.9418 1.65177 17.1348 1.58384C17.3945 1.48575 18.9181 1.22434 18.6782 0.657211C18.476 0.158379 16.6145 1.0342 16.264 1.14867C16.7267 0.965172 17.4919 0.649534 17.5738 0.0888672C16.865 0.191399 16.1691 0.544809 15.6314 1.05869C15.8255 0.838332 15.9728 0.569787 16.004 0.280772C14.1134 1.55447 13.0089 4.12234 12.1151 6.61327C11.4133 5.89603 10.7913 5.33122 10.2332 5.0176C8.66778 4.13234 6.796 3.20869 3.85774 2.05848C3.76756 3.08362 4.33853 4.44669 5.98378 5.35316C5.62732 5.30283 4.97547 5.41511 4.45413 5.54677C4.66644 6.72116 5.35983 7.68873 7.23698 8.15661C6.37911 8.21632 5.93577 8.42217 5.53396 8.86587C5.92468 9.68265 6.8781 10.6439 8.59319 10.4466C6.68635 11.3133 7.81569 12.9183 9.36729 12.6789C6.72038 15.562 2.54723 15.3501 0.150879 12.9387C6.4076 21.9291 20.0083 18.2556 22.0351 9.59614C23.5536 9.60979 24.4463 9.04145 24.9999 8.41486C24.125 8.57143 22.8568 8.40962 22.1844 8.11433Z" fill="white"/>
</g>
</svg>
